<mxfile host="app.diagrams.net" modified="2022-10-30T16:43:48.716Z" agent="5.0 (Macintosh; Intel Mac OS X 10_15_7) AppleWebKit/605.1.15 (KHTML, like Gecko) Version/15.6.1 Safari/605.1.15" etag="qwaKjLDvW_Hg81QfTJOO" version="20.5.1" type="github">
  <diagram id="C5RBs43oDa-KdzZeNtuy" name="Page-1">
    <mxGraphModel dx="1540" dy="1333" grid="1" gridSize="10" guides="1" tooltips="1" connect="1" arrows="1" fold="1" page="1" pageScale="1" pageWidth="2000" pageHeight="1600" math="0" shadow="0">
      <root>
        <mxCell id="WIyWlLk6GJQsqaUBKTNV-0" />
        <mxCell id="WIyWlLk6GJQsqaUBKTNV-1" parent="WIyWlLk6GJQsqaUBKTNV-0" />
        <mxCell id="OFG8e6oeLdB0j_sNBnF0-21" value="" style="edgeStyle=orthogonalEdgeStyle;rounded=0;orthogonalLoop=1;jettySize=auto;html=1;entryX=0.5;entryY=1;entryDx=0;entryDy=0;" parent="WIyWlLk6GJQsqaUBKTNV-1" source="OFG8e6oeLdB0j_sNBnF0-18" target="neUSthtTEVrd8TGyOHVI-0" edge="1">
          <mxGeometry relative="1" as="geometry" />
        </mxCell>
        <mxCell id="OFG8e6oeLdB0j_sNBnF0-18" value="&quot;three&quot;" style="ellipse;whiteSpace=wrap;html=1;" parent="WIyWlLk6GJQsqaUBKTNV-1" vertex="1">
          <mxGeometry x="210" y="1400" width="120" height="80" as="geometry" />
        </mxCell>
        <mxCell id="OFG8e6oeLdB0j_sNBnF0-38" value="" style="edgeStyle=orthogonalEdgeStyle;rounded=0;orthogonalLoop=1;jettySize=auto;html=1;" parent="WIyWlLk6GJQsqaUBKTNV-1" source="OFG8e6oeLdB0j_sNBnF0-19" target="OFG8e6oeLdB0j_sNBnF0-28" edge="1">
          <mxGeometry relative="1" as="geometry" />
        </mxCell>
        <mxCell id="OFG8e6oeLdB0j_sNBnF0-48" value="W1 = log3" style="edgeLabel;html=1;align=center;verticalAlign=middle;resizable=0;points=[];" parent="OFG8e6oeLdB0j_sNBnF0-38" vertex="1" connectable="0">
          <mxGeometry x="-0.3111" y="-2" relative="1" as="geometry">
            <mxPoint x="9" y="-2" as="offset" />
          </mxGeometry>
        </mxCell>
        <mxCell id="OFG8e6oeLdB0j_sNBnF0-19" value="S1 = W0+U1&amp;nbsp;&lt;br&gt;=log3" style="ellipse;whiteSpace=wrap;html=1;aspect=fixed;" parent="WIyWlLk6GJQsqaUBKTNV-1" vertex="1">
          <mxGeometry x="230" y="1010" width="80" height="80" as="geometry" />
        </mxCell>
        <mxCell id="OFG8e6oeLdB0j_sNBnF0-22" value="" style="edgeStyle=orthogonalEdgeStyle;rounded=0;orthogonalLoop=1;jettySize=auto;html=1;entryX=0.5;entryY=1;entryDx=0;entryDy=0;" parent="WIyWlLk6GJQsqaUBKTNV-1" source="OFG8e6oeLdB0j_sNBnF0-20" edge="1">
          <mxGeometry relative="1" as="geometry">
            <mxPoint x="270" y="1090" as="targetPoint" />
          </mxGeometry>
        </mxCell>
        <mxCell id="OFG8e6oeLdB0j_sNBnF0-41" value="U1 = log3" style="edgeLabel;html=1;align=center;verticalAlign=middle;resizable=0;points=[];" parent="OFG8e6oeLdB0j_sNBnF0-22" vertex="1" connectable="0">
          <mxGeometry x="-0.12" y="1" relative="1" as="geometry">
            <mxPoint as="offset" />
          </mxGeometry>
        </mxCell>
        <mxCell id="OFG8e6oeLdB0j_sNBnF0-20" value="x1=3" style="ellipse;whiteSpace=wrap;html=1;" parent="WIyWlLk6GJQsqaUBKTNV-1" vertex="1">
          <mxGeometry x="210" y="1140" width="120" height="80" as="geometry" />
        </mxCell>
        <mxCell id="neUSthtTEVrd8TGyOHVI-27" value="" style="edgeStyle=orthogonalEdgeStyle;rounded=0;orthogonalLoop=1;jettySize=auto;html=1;" edge="1" parent="WIyWlLk6GJQsqaUBKTNV-1" source="OFG8e6oeLdB0j_sNBnF0-27" target="neUSthtTEVrd8TGyOHVI-5">
          <mxGeometry relative="1" as="geometry" />
        </mxCell>
        <mxCell id="OFG8e6oeLdB0j_sNBnF0-27" value="&quot;one&quot;" style="ellipse;whiteSpace=wrap;html=1;" parent="WIyWlLk6GJQsqaUBKTNV-1" vertex="1">
          <mxGeometry x="380" y="1395" width="120" height="80" as="geometry" />
        </mxCell>
        <mxCell id="OFG8e6oeLdB0j_sNBnF0-28" value="S2 = W1+U2&lt;br&gt;=log3" style="ellipse;whiteSpace=wrap;html=1;aspect=fixed;" parent="WIyWlLk6GJQsqaUBKTNV-1" vertex="1">
          <mxGeometry x="400" y="1010" width="80" height="80" as="geometry" />
        </mxCell>
        <mxCell id="OFG8e6oeLdB0j_sNBnF0-29" value="U2 = log1" style="edgeStyle=orthogonalEdgeStyle;rounded=0;orthogonalLoop=1;jettySize=auto;html=1;entryX=0.5;entryY=1;entryDx=0;entryDy=0;" parent="WIyWlLk6GJQsqaUBKTNV-1" source="OFG8e6oeLdB0j_sNBnF0-30" edge="1">
          <mxGeometry relative="1" as="geometry">
            <mxPoint x="440" y="1090" as="targetPoint" />
          </mxGeometry>
        </mxCell>
        <mxCell id="OFG8e6oeLdB0j_sNBnF0-30" value="x2 = 1" style="ellipse;whiteSpace=wrap;html=1;" parent="WIyWlLk6GJQsqaUBKTNV-1" vertex="1">
          <mxGeometry x="380" y="1140" width="120" height="80" as="geometry" />
        </mxCell>
        <mxCell id="OFG8e6oeLdB0j_sNBnF0-34" value="V1 = e^(S1)&lt;br&gt;= 3" style="endArrow=classic;html=1;rounded=0;exitX=0.5;exitY=0;exitDx=0;exitDy=0;" parent="WIyWlLk6GJQsqaUBKTNV-1" source="OFG8e6oeLdB0j_sNBnF0-19" edge="1">
          <mxGeometry width="50" height="50" relative="1" as="geometry">
            <mxPoint x="410" y="1290" as="sourcePoint" />
            <mxPoint x="270" y="920" as="targetPoint" />
          </mxGeometry>
        </mxCell>
        <mxCell id="OFG8e6oeLdB0j_sNBnF0-35" value="V2 = e^(S2)&lt;br&gt;=3" style="endArrow=classic;html=1;rounded=0;exitX=0.5;exitY=0;exitDx=0;exitDy=0;" parent="WIyWlLk6GJQsqaUBKTNV-1" edge="1">
          <mxGeometry width="50" height="50" relative="1" as="geometry">
            <mxPoint x="439.28999999999996" y="1010" as="sourcePoint" />
            <mxPoint x="439.28999999999996" y="920" as="targetPoint" />
          </mxGeometry>
        </mxCell>
        <mxCell id="OFG8e6oeLdB0j_sNBnF0-36" value="input: x(t)" style="text;html=1;align=center;verticalAlign=middle;resizable=0;points=[];autosize=1;strokeColor=none;fillColor=none;" parent="WIyWlLk6GJQsqaUBKTNV-1" vertex="1">
          <mxGeometry x="40" y="1165" width="70" height="30" as="geometry" />
        </mxCell>
        <mxCell id="OFG8e6oeLdB0j_sNBnF0-37" value="one hot encoding" style="text;html=1;align=center;verticalAlign=middle;resizable=0;points=[];autosize=1;strokeColor=none;fillColor=none;" parent="WIyWlLk6GJQsqaUBKTNV-1" vertex="1">
          <mxGeometry x="15" y="1340" width="120" height="30" as="geometry" />
        </mxCell>
        <mxCell id="OFG8e6oeLdB0j_sNBnF0-39" value="U(t) = log(x(t))" style="text;html=1;align=center;verticalAlign=middle;resizable=0;points=[];autosize=1;strokeColor=none;fillColor=none;" parent="WIyWlLk6GJQsqaUBKTNV-1" vertex="1">
          <mxGeometry x="25" y="1110" width="100" height="30" as="geometry" />
        </mxCell>
        <mxCell id="OFG8e6oeLdB0j_sNBnF0-42" value="S(t) = W(t-1)+U(t)&lt;br&gt;W(t) = S(t)" style="text;html=1;align=center;verticalAlign=middle;resizable=0;points=[];autosize=1;strokeColor=none;fillColor=none;" parent="WIyWlLk6GJQsqaUBKTNV-1" vertex="1">
          <mxGeometry x="15" y="1025" width="120" height="40" as="geometry" />
        </mxCell>
        <mxCell id="OFG8e6oeLdB0j_sNBnF0-44" value="W0 = 0" style="edgeStyle=orthogonalEdgeStyle;rounded=0;orthogonalLoop=1;jettySize=auto;html=1;" parent="WIyWlLk6GJQsqaUBKTNV-1" edge="1">
          <mxGeometry relative="1" as="geometry">
            <mxPoint x="140" y="1050" as="sourcePoint" />
            <mxPoint x="230" y="1050" as="targetPoint" />
            <Array as="points">
              <mxPoint x="180" y="1050" />
              <mxPoint x="180" y="1050" />
            </Array>
          </mxGeometry>
        </mxCell>
        <mxCell id="OFG8e6oeLdB0j_sNBnF0-45" value="V(t) = e^S(t)" style="text;html=1;align=center;verticalAlign=middle;resizable=0;points=[];autosize=1;strokeColor=none;fillColor=none;" parent="WIyWlLk6GJQsqaUBKTNV-1" vertex="1">
          <mxGeometry x="30" y="960" width="90" height="30" as="geometry" />
        </mxCell>
        <mxCell id="OFG8e6oeLdB0j_sNBnF0-46" value="original input words" style="text;html=1;align=center;verticalAlign=middle;resizable=0;points=[];autosize=1;strokeColor=none;fillColor=none;" parent="WIyWlLk6GJQsqaUBKTNV-1" vertex="1">
          <mxGeometry x="10" y="1420" width="130" height="30" as="geometry" />
        </mxCell>
        <mxCell id="OFG8e6oeLdB0j_sNBnF0-49" value="" style="edgeStyle=orthogonalEdgeStyle;rounded=0;orthogonalLoop=1;jettySize=auto;html=1;" parent="WIyWlLk6GJQsqaUBKTNV-1" target="OFG8e6oeLdB0j_sNBnF0-53" edge="1">
          <mxGeometry relative="1" as="geometry">
            <mxPoint x="480" y="1050" as="sourcePoint" />
          </mxGeometry>
        </mxCell>
        <mxCell id="OFG8e6oeLdB0j_sNBnF0-50" value="W2 = log3" style="edgeLabel;html=1;align=center;verticalAlign=middle;resizable=0;points=[];" parent="OFG8e6oeLdB0j_sNBnF0-49" vertex="1" connectable="0">
          <mxGeometry x="-0.3111" y="-2" relative="1" as="geometry">
            <mxPoint x="9" y="-2" as="offset" />
          </mxGeometry>
        </mxCell>
        <mxCell id="neUSthtTEVrd8TGyOHVI-28" value="" style="edgeStyle=orthogonalEdgeStyle;rounded=0;orthogonalLoop=1;jettySize=auto;html=1;" edge="1" parent="WIyWlLk6GJQsqaUBKTNV-1" source="OFG8e6oeLdB0j_sNBnF0-52" target="neUSthtTEVrd8TGyOHVI-8">
          <mxGeometry relative="1" as="geometry" />
        </mxCell>
        <mxCell id="OFG8e6oeLdB0j_sNBnF0-52" value="&quot;four&quot;" style="ellipse;whiteSpace=wrap;html=1;" parent="WIyWlLk6GJQsqaUBKTNV-1" vertex="1">
          <mxGeometry x="550" y="1395" width="120" height="80" as="geometry" />
        </mxCell>
        <mxCell id="OFG8e6oeLdB0j_sNBnF0-53" value="S3 = W2+U3&lt;br&gt;=log12" style="ellipse;whiteSpace=wrap;html=1;aspect=fixed;" parent="WIyWlLk6GJQsqaUBKTNV-1" vertex="1">
          <mxGeometry x="570" y="1010" width="80" height="80" as="geometry" />
        </mxCell>
        <mxCell id="OFG8e6oeLdB0j_sNBnF0-54" value="U3 = log4" style="edgeStyle=orthogonalEdgeStyle;rounded=0;orthogonalLoop=1;jettySize=auto;html=1;entryX=0.5;entryY=1;entryDx=0;entryDy=0;" parent="WIyWlLk6GJQsqaUBKTNV-1" source="OFG8e6oeLdB0j_sNBnF0-55" edge="1">
          <mxGeometry relative="1" as="geometry">
            <mxPoint x="610" y="1090" as="targetPoint" />
          </mxGeometry>
        </mxCell>
        <mxCell id="OFG8e6oeLdB0j_sNBnF0-55" value="x3 = 4" style="ellipse;whiteSpace=wrap;html=1;" parent="WIyWlLk6GJQsqaUBKTNV-1" vertex="1">
          <mxGeometry x="550" y="1140" width="120" height="80" as="geometry" />
        </mxCell>
        <mxCell id="OFG8e6oeLdB0j_sNBnF0-56" value="V3 = e^(S3)&lt;br&gt;=12" style="endArrow=classic;html=1;rounded=0;exitX=0.5;exitY=0;exitDx=0;exitDy=0;" parent="WIyWlLk6GJQsqaUBKTNV-1" edge="1">
          <mxGeometry width="50" height="50" relative="1" as="geometry">
            <mxPoint x="609.29" y="1010" as="sourcePoint" />
            <mxPoint x="609.29" y="920" as="targetPoint" />
          </mxGeometry>
        </mxCell>
        <mxCell id="OFG8e6oeLdB0j_sNBnF0-57" value="" style="edgeStyle=orthogonalEdgeStyle;rounded=0;orthogonalLoop=1;jettySize=auto;html=1;" parent="WIyWlLk6GJQsqaUBKTNV-1" target="OFG8e6oeLdB0j_sNBnF0-61" edge="1">
          <mxGeometry relative="1" as="geometry">
            <mxPoint x="650" y="1050" as="sourcePoint" />
          </mxGeometry>
        </mxCell>
        <mxCell id="OFG8e6oeLdB0j_sNBnF0-58" value="W3 = log12" style="edgeLabel;html=1;align=center;verticalAlign=middle;resizable=0;points=[];" parent="OFG8e6oeLdB0j_sNBnF0-57" vertex="1" connectable="0">
          <mxGeometry x="-0.3111" y="-2" relative="1" as="geometry">
            <mxPoint x="9" y="-2" as="offset" />
          </mxGeometry>
        </mxCell>
        <mxCell id="neUSthtTEVrd8TGyOHVI-29" value="" style="edgeStyle=orthogonalEdgeStyle;rounded=0;orthogonalLoop=1;jettySize=auto;html=1;" edge="1" parent="WIyWlLk6GJQsqaUBKTNV-1" source="OFG8e6oeLdB0j_sNBnF0-60" target="neUSthtTEVrd8TGyOHVI-11">
          <mxGeometry relative="1" as="geometry" />
        </mxCell>
        <mxCell id="OFG8e6oeLdB0j_sNBnF0-60" value="&quot;one&quot;" style="ellipse;whiteSpace=wrap;html=1;" parent="WIyWlLk6GJQsqaUBKTNV-1" vertex="1">
          <mxGeometry x="720" y="1395" width="120" height="80" as="geometry" />
        </mxCell>
        <mxCell id="OFG8e6oeLdB0j_sNBnF0-61" value="S4 = W3+U4&lt;br&gt;=log12" style="ellipse;whiteSpace=wrap;html=1;aspect=fixed;" parent="WIyWlLk6GJQsqaUBKTNV-1" vertex="1">
          <mxGeometry x="740" y="1010" width="80" height="80" as="geometry" />
        </mxCell>
        <mxCell id="OFG8e6oeLdB0j_sNBnF0-62" value="U4 = log1" style="edgeStyle=orthogonalEdgeStyle;rounded=0;orthogonalLoop=1;jettySize=auto;html=1;entryX=0.5;entryY=1;entryDx=0;entryDy=0;" parent="WIyWlLk6GJQsqaUBKTNV-1" source="OFG8e6oeLdB0j_sNBnF0-63" edge="1">
          <mxGeometry relative="1" as="geometry">
            <mxPoint x="780" y="1090" as="targetPoint" />
          </mxGeometry>
        </mxCell>
        <mxCell id="OFG8e6oeLdB0j_sNBnF0-63" value="x4 = 1" style="ellipse;whiteSpace=wrap;html=1;" parent="WIyWlLk6GJQsqaUBKTNV-1" vertex="1">
          <mxGeometry x="720" y="1140" width="120" height="80" as="geometry" />
        </mxCell>
        <mxCell id="OFG8e6oeLdB0j_sNBnF0-64" value="V4 = e^(S4)&lt;br&gt;=12" style="endArrow=classic;html=1;rounded=0;exitX=0.5;exitY=0;exitDx=0;exitDy=0;" parent="WIyWlLk6GJQsqaUBKTNV-1" edge="1">
          <mxGeometry width="50" height="50" relative="1" as="geometry">
            <mxPoint x="779.29" y="1010" as="sourcePoint" />
            <mxPoint x="779.29" y="920" as="targetPoint" />
          </mxGeometry>
        </mxCell>
        <mxCell id="OFG8e6oeLdB0j_sNBnF0-65" value="" style="edgeStyle=orthogonalEdgeStyle;rounded=0;orthogonalLoop=1;jettySize=auto;html=1;" parent="WIyWlLk6GJQsqaUBKTNV-1" target="OFG8e6oeLdB0j_sNBnF0-69" edge="1">
          <mxGeometry relative="1" as="geometry">
            <mxPoint x="820" y="1050" as="sourcePoint" />
          </mxGeometry>
        </mxCell>
        <mxCell id="OFG8e6oeLdB0j_sNBnF0-66" value="W4 = log12" style="edgeLabel;html=1;align=center;verticalAlign=middle;resizable=0;points=[];" parent="OFG8e6oeLdB0j_sNBnF0-65" vertex="1" connectable="0">
          <mxGeometry x="-0.3111" y="-2" relative="1" as="geometry">
            <mxPoint x="9" y="-2" as="offset" />
          </mxGeometry>
        </mxCell>
        <mxCell id="neUSthtTEVrd8TGyOHVI-30" value="" style="edgeStyle=orthogonalEdgeStyle;rounded=0;orthogonalLoop=1;jettySize=auto;html=1;" edge="1" parent="WIyWlLk6GJQsqaUBKTNV-1" source="OFG8e6oeLdB0j_sNBnF0-68" target="neUSthtTEVrd8TGyOHVI-14">
          <mxGeometry relative="1" as="geometry" />
        </mxCell>
        <mxCell id="OFG8e6oeLdB0j_sNBnF0-68" value="&quot;five&quot;" style="ellipse;whiteSpace=wrap;html=1;" parent="WIyWlLk6GJQsqaUBKTNV-1" vertex="1">
          <mxGeometry x="890" y="1395" width="120" height="80" as="geometry" />
        </mxCell>
        <mxCell id="OFG8e6oeLdB0j_sNBnF0-69" value="S5 = W4+U5&lt;br&gt;=log60" style="ellipse;whiteSpace=wrap;html=1;aspect=fixed;" parent="WIyWlLk6GJQsqaUBKTNV-1" vertex="1">
          <mxGeometry x="910" y="1010" width="80" height="80" as="geometry" />
        </mxCell>
        <mxCell id="OFG8e6oeLdB0j_sNBnF0-70" value="U5 = log5" style="edgeStyle=orthogonalEdgeStyle;rounded=0;orthogonalLoop=1;jettySize=auto;html=1;entryX=0.5;entryY=1;entryDx=0;entryDy=0;" parent="WIyWlLk6GJQsqaUBKTNV-1" source="OFG8e6oeLdB0j_sNBnF0-71" edge="1">
          <mxGeometry relative="1" as="geometry">
            <mxPoint x="950" y="1090" as="targetPoint" />
          </mxGeometry>
        </mxCell>
        <mxCell id="OFG8e6oeLdB0j_sNBnF0-71" value="x5 = 5" style="ellipse;whiteSpace=wrap;html=1;" parent="WIyWlLk6GJQsqaUBKTNV-1" vertex="1">
          <mxGeometry x="890" y="1140" width="120" height="80" as="geometry" />
        </mxCell>
        <mxCell id="OFG8e6oeLdB0j_sNBnF0-72" value="V5 = e^(S5)&lt;br&gt;=60" style="endArrow=classic;html=1;rounded=0;exitX=0.5;exitY=0;exitDx=0;exitDy=0;" parent="WIyWlLk6GJQsqaUBKTNV-1" edge="1">
          <mxGeometry width="50" height="50" relative="1" as="geometry">
            <mxPoint x="949.29" y="1010" as="sourcePoint" />
            <mxPoint x="949.29" y="920" as="targetPoint" />
          </mxGeometry>
        </mxCell>
        <mxCell id="OFG8e6oeLdB0j_sNBnF0-73" value="" style="edgeStyle=orthogonalEdgeStyle;rounded=0;orthogonalLoop=1;jettySize=auto;html=1;" parent="WIyWlLk6GJQsqaUBKTNV-1" target="OFG8e6oeLdB0j_sNBnF0-77" edge="1">
          <mxGeometry relative="1" as="geometry">
            <mxPoint x="990" y="1050" as="sourcePoint" />
          </mxGeometry>
        </mxCell>
        <mxCell id="OFG8e6oeLdB0j_sNBnF0-74" value="W5 = log60" style="edgeLabel;html=1;align=center;verticalAlign=middle;resizable=0;points=[];" parent="OFG8e6oeLdB0j_sNBnF0-73" vertex="1" connectable="0">
          <mxGeometry x="-0.3111" y="-2" relative="1" as="geometry">
            <mxPoint x="9" y="-2" as="offset" />
          </mxGeometry>
        </mxCell>
        <mxCell id="neUSthtTEVrd8TGyOHVI-31" value="" style="edgeStyle=orthogonalEdgeStyle;rounded=0;orthogonalLoop=1;jettySize=auto;html=1;" edge="1" parent="WIyWlLk6GJQsqaUBKTNV-1" source="OFG8e6oeLdB0j_sNBnF0-76" target="neUSthtTEVrd8TGyOHVI-17">
          <mxGeometry relative="1" as="geometry" />
        </mxCell>
        <mxCell id="OFG8e6oeLdB0j_sNBnF0-76" value="&quot;two&quot;" style="ellipse;whiteSpace=wrap;html=1;" parent="WIyWlLk6GJQsqaUBKTNV-1" vertex="1">
          <mxGeometry x="1060" y="1395" width="120" height="80" as="geometry" />
        </mxCell>
        <mxCell id="OFG8e6oeLdB0j_sNBnF0-77" value="S6 = W5+U6&lt;br&gt;=log120" style="ellipse;whiteSpace=wrap;html=1;aspect=fixed;" parent="WIyWlLk6GJQsqaUBKTNV-1" vertex="1">
          <mxGeometry x="1080" y="1010" width="80" height="80" as="geometry" />
        </mxCell>
        <mxCell id="OFG8e6oeLdB0j_sNBnF0-78" value="U6 = log2" style="edgeStyle=orthogonalEdgeStyle;rounded=0;orthogonalLoop=1;jettySize=auto;html=1;entryX=0.5;entryY=1;entryDx=0;entryDy=0;" parent="WIyWlLk6GJQsqaUBKTNV-1" source="OFG8e6oeLdB0j_sNBnF0-79" edge="1">
          <mxGeometry relative="1" as="geometry">
            <mxPoint x="1120" y="1090" as="targetPoint" />
          </mxGeometry>
        </mxCell>
        <mxCell id="OFG8e6oeLdB0j_sNBnF0-79" value="x6 = 2" style="ellipse;whiteSpace=wrap;html=1;" parent="WIyWlLk6GJQsqaUBKTNV-1" vertex="1">
          <mxGeometry x="1060" y="1140" width="120" height="80" as="geometry" />
        </mxCell>
        <mxCell id="OFG8e6oeLdB0j_sNBnF0-80" value="V6 = e^(S6)&lt;br&gt;=120" style="endArrow=classic;html=1;rounded=0;exitX=0.5;exitY=0;exitDx=0;exitDy=0;" parent="WIyWlLk6GJQsqaUBKTNV-1" edge="1">
          <mxGeometry width="50" height="50" relative="1" as="geometry">
            <mxPoint x="1119.29" y="1010" as="sourcePoint" />
            <mxPoint x="1119.29" y="920" as="targetPoint" />
          </mxGeometry>
        </mxCell>
        <mxCell id="OFG8e6oeLdB0j_sNBnF0-81" value="" style="edgeStyle=orthogonalEdgeStyle;rounded=0;orthogonalLoop=1;jettySize=auto;html=1;" parent="WIyWlLk6GJQsqaUBKTNV-1" target="OFG8e6oeLdB0j_sNBnF0-85" edge="1">
          <mxGeometry relative="1" as="geometry">
            <mxPoint x="1160" y="1050" as="sourcePoint" />
          </mxGeometry>
        </mxCell>
        <mxCell id="OFG8e6oeLdB0j_sNBnF0-82" value="W6 = log120" style="edgeLabel;html=1;align=center;verticalAlign=middle;resizable=0;points=[];" parent="OFG8e6oeLdB0j_sNBnF0-81" vertex="1" connectable="0">
          <mxGeometry x="-0.3111" y="-2" relative="1" as="geometry">
            <mxPoint x="9" y="-2" as="offset" />
          </mxGeometry>
        </mxCell>
        <mxCell id="neUSthtTEVrd8TGyOHVI-32" value="" style="edgeStyle=orthogonalEdgeStyle;rounded=0;orthogonalLoop=1;jettySize=auto;html=1;" edge="1" parent="WIyWlLk6GJQsqaUBKTNV-1" source="OFG8e6oeLdB0j_sNBnF0-84" target="neUSthtTEVrd8TGyOHVI-20">
          <mxGeometry relative="1" as="geometry" />
        </mxCell>
        <mxCell id="OFG8e6oeLdB0j_sNBnF0-84" value="&quot;five&quot;" style="ellipse;whiteSpace=wrap;html=1;" parent="WIyWlLk6GJQsqaUBKTNV-1" vertex="1">
          <mxGeometry x="1230" y="1395" width="120" height="80" as="geometry" />
        </mxCell>
        <mxCell id="OFG8e6oeLdB0j_sNBnF0-85" value="S7 = W6+U7&lt;br&gt;=log600" style="ellipse;whiteSpace=wrap;html=1;aspect=fixed;" parent="WIyWlLk6GJQsqaUBKTNV-1" vertex="1">
          <mxGeometry x="1250" y="1010" width="80" height="80" as="geometry" />
        </mxCell>
        <mxCell id="OFG8e6oeLdB0j_sNBnF0-86" value="U7 = log5" style="edgeStyle=orthogonalEdgeStyle;rounded=0;orthogonalLoop=1;jettySize=auto;html=1;entryX=0.5;entryY=1;entryDx=0;entryDy=0;" parent="WIyWlLk6GJQsqaUBKTNV-1" source="OFG8e6oeLdB0j_sNBnF0-87" edge="1">
          <mxGeometry relative="1" as="geometry">
            <mxPoint x="1290" y="1090" as="targetPoint" />
          </mxGeometry>
        </mxCell>
        <mxCell id="OFG8e6oeLdB0j_sNBnF0-87" value="x7 = 5" style="ellipse;whiteSpace=wrap;html=1;" parent="WIyWlLk6GJQsqaUBKTNV-1" vertex="1">
          <mxGeometry x="1230" y="1140" width="120" height="80" as="geometry" />
        </mxCell>
        <mxCell id="OFG8e6oeLdB0j_sNBnF0-88" value="V7 = e^(S7)&lt;br&gt;=600" style="endArrow=classic;html=1;rounded=0;exitX=0.5;exitY=0;exitDx=0;exitDy=0;" parent="WIyWlLk6GJQsqaUBKTNV-1" edge="1">
          <mxGeometry width="50" height="50" relative="1" as="geometry">
            <mxPoint x="1289.29" y="1010" as="sourcePoint" />
            <mxPoint x="1289.29" y="920" as="targetPoint" />
          </mxGeometry>
        </mxCell>
        <mxCell id="OFG8e6oeLdB0j_sNBnF0-89" value="" style="edgeStyle=orthogonalEdgeStyle;rounded=0;orthogonalLoop=1;jettySize=auto;html=1;" parent="WIyWlLk6GJQsqaUBKTNV-1" target="OFG8e6oeLdB0j_sNBnF0-93" edge="1">
          <mxGeometry relative="1" as="geometry">
            <mxPoint x="1330" y="1050" as="sourcePoint" />
          </mxGeometry>
        </mxCell>
        <mxCell id="OFG8e6oeLdB0j_sNBnF0-90" value="W7 = log600" style="edgeLabel;html=1;align=center;verticalAlign=middle;resizable=0;points=[];" parent="OFG8e6oeLdB0j_sNBnF0-89" vertex="1" connectable="0">
          <mxGeometry x="-0.3111" y="-2" relative="1" as="geometry">
            <mxPoint x="9" y="-2" as="offset" />
          </mxGeometry>
        </mxCell>
        <mxCell id="neUSthtTEVrd8TGyOHVI-33" value="" style="edgeStyle=orthogonalEdgeStyle;rounded=0;orthogonalLoop=1;jettySize=auto;html=1;" edge="1" parent="WIyWlLk6GJQsqaUBKTNV-1" source="OFG8e6oeLdB0j_sNBnF0-92" target="neUSthtTEVrd8TGyOHVI-23">
          <mxGeometry relative="1" as="geometry" />
        </mxCell>
        <mxCell id="OFG8e6oeLdB0j_sNBnF0-92" value="&quot;three&quot;" style="ellipse;whiteSpace=wrap;html=1;" parent="WIyWlLk6GJQsqaUBKTNV-1" vertex="1">
          <mxGeometry x="1400" y="1395" width="120" height="80" as="geometry" />
        </mxCell>
        <mxCell id="OFG8e6oeLdB0j_sNBnF0-93" value="S8 = W7+U8&lt;br&gt;=log1800" style="ellipse;whiteSpace=wrap;html=1;aspect=fixed;" parent="WIyWlLk6GJQsqaUBKTNV-1" vertex="1">
          <mxGeometry x="1420" y="1010" width="80" height="80" as="geometry" />
        </mxCell>
        <mxCell id="OFG8e6oeLdB0j_sNBnF0-94" value="U8 = log3" style="edgeStyle=orthogonalEdgeStyle;rounded=0;orthogonalLoop=1;jettySize=auto;html=1;entryX=0.5;entryY=1;entryDx=0;entryDy=0;" parent="WIyWlLk6GJQsqaUBKTNV-1" source="OFG8e6oeLdB0j_sNBnF0-95" edge="1">
          <mxGeometry relative="1" as="geometry">
            <mxPoint x="1460" y="1090" as="targetPoint" />
          </mxGeometry>
        </mxCell>
        <mxCell id="OFG8e6oeLdB0j_sNBnF0-95" value="x8 = 3" style="ellipse;whiteSpace=wrap;html=1;" parent="WIyWlLk6GJQsqaUBKTNV-1" vertex="1">
          <mxGeometry x="1400" y="1140" width="120" height="80" as="geometry" />
        </mxCell>
        <mxCell id="OFG8e6oeLdB0j_sNBnF0-96" value="V8 = e^(S8)&lt;br&gt;=1800" style="endArrow=classic;html=1;rounded=0;exitX=0.5;exitY=0;exitDx=0;exitDy=0;" parent="WIyWlLk6GJQsqaUBKTNV-1" edge="1">
          <mxGeometry width="50" height="50" relative="1" as="geometry">
            <mxPoint x="1459.29" y="1010" as="sourcePoint" />
            <mxPoint x="1459.29" y="920" as="targetPoint" />
          </mxGeometry>
        </mxCell>
        <mxCell id="OFG8e6oeLdB0j_sNBnF0-97" value="" style="edgeStyle=orthogonalEdgeStyle;rounded=0;orthogonalLoop=1;jettySize=auto;html=1;" parent="WIyWlLk6GJQsqaUBKTNV-1" target="OFG8e6oeLdB0j_sNBnF0-101" edge="1">
          <mxGeometry relative="1" as="geometry">
            <mxPoint x="1500" y="1050" as="sourcePoint" />
          </mxGeometry>
        </mxCell>
        <mxCell id="OFG8e6oeLdB0j_sNBnF0-98" value="W8 = log1800" style="edgeLabel;html=1;align=center;verticalAlign=middle;resizable=0;points=[];" parent="OFG8e6oeLdB0j_sNBnF0-97" vertex="1" connectable="0">
          <mxGeometry x="-0.3111" y="-2" relative="1" as="geometry">
            <mxPoint x="9" y="-2" as="offset" />
          </mxGeometry>
        </mxCell>
        <mxCell id="neUSthtTEVrd8TGyOHVI-34" value="" style="edgeStyle=orthogonalEdgeStyle;rounded=0;orthogonalLoop=1;jettySize=auto;html=1;" edge="1" parent="WIyWlLk6GJQsqaUBKTNV-1" source="OFG8e6oeLdB0j_sNBnF0-100" target="neUSthtTEVrd8TGyOHVI-26">
          <mxGeometry relative="1" as="geometry" />
        </mxCell>
        <mxCell id="OFG8e6oeLdB0j_sNBnF0-100" value="&quot;five&quot;" style="ellipse;whiteSpace=wrap;html=1;" parent="WIyWlLk6GJQsqaUBKTNV-1" vertex="1">
          <mxGeometry x="1570" y="1395" width="120" height="80" as="geometry" />
        </mxCell>
        <mxCell id="OFG8e6oeLdB0j_sNBnF0-101" value="S9 = W8+U9&lt;br&gt;=log9000" style="ellipse;whiteSpace=wrap;html=1;aspect=fixed;" parent="WIyWlLk6GJQsqaUBKTNV-1" vertex="1">
          <mxGeometry x="1590" y="1010" width="80" height="80" as="geometry" />
        </mxCell>
        <mxCell id="OFG8e6oeLdB0j_sNBnF0-102" value="U9 = log5" style="edgeStyle=orthogonalEdgeStyle;rounded=0;orthogonalLoop=1;jettySize=auto;html=1;entryX=0.5;entryY=1;entryDx=0;entryDy=0;" parent="WIyWlLk6GJQsqaUBKTNV-1" source="OFG8e6oeLdB0j_sNBnF0-103" edge="1">
          <mxGeometry relative="1" as="geometry">
            <mxPoint x="1630" y="1090" as="targetPoint" />
          </mxGeometry>
        </mxCell>
        <mxCell id="OFG8e6oeLdB0j_sNBnF0-103" value="x9 = 5" style="ellipse;whiteSpace=wrap;html=1;" parent="WIyWlLk6GJQsqaUBKTNV-1" vertex="1">
          <mxGeometry x="1570" y="1140" width="120" height="80" as="geometry" />
        </mxCell>
        <mxCell id="OFG8e6oeLdB0j_sNBnF0-104" value="V9 = e^(S9)&lt;br&gt;=9000" style="endArrow=classic;html=1;rounded=0;exitX=0.5;exitY=0;exitDx=0;exitDy=0;" parent="WIyWlLk6GJQsqaUBKTNV-1" edge="1">
          <mxGeometry width="50" height="50" relative="1" as="geometry">
            <mxPoint x="1629.29" y="1010" as="sourcePoint" />
            <mxPoint x="1629.29" y="920" as="targetPoint" />
          </mxGeometry>
        </mxCell>
        <mxCell id="uHfJWNXUP_AKqw1SnERW-0" value="9000" style="text;html=1;align=center;verticalAlign=middle;resizable=0;points=[];autosize=1;strokeColor=none;fillColor=none;" parent="WIyWlLk6GJQsqaUBKTNV-1" vertex="1">
          <mxGeometry x="1605" y="890" width="50" height="30" as="geometry" />
        </mxCell>
        <mxCell id="uHfJWNXUP_AKqw1SnERW-1" value="output" style="text;html=1;align=center;verticalAlign=middle;resizable=0;points=[];autosize=1;strokeColor=none;fillColor=none;" parent="WIyWlLk6GJQsqaUBKTNV-1" vertex="1">
          <mxGeometry x="45" y="890" width="60" height="30" as="geometry" />
        </mxCell>
        <mxCell id="neUSthtTEVrd8TGyOHVI-1" value="" style="edgeStyle=orthogonalEdgeStyle;rounded=0;orthogonalLoop=1;jettySize=auto;html=1;" edge="1" parent="WIyWlLk6GJQsqaUBKTNV-1" source="neUSthtTEVrd8TGyOHVI-0" target="OFG8e6oeLdB0j_sNBnF0-20">
          <mxGeometry relative="1" as="geometry" />
        </mxCell>
        <mxCell id="neUSthtTEVrd8TGyOHVI-0" value="x1&#39;= 00100" style="ellipse;whiteSpace=wrap;html=1;" vertex="1" parent="WIyWlLk6GJQsqaUBKTNV-1">
          <mxGeometry x="210" y="1260" width="120" height="80" as="geometry" />
        </mxCell>
        <mxCell id="neUSthtTEVrd8TGyOHVI-2" value="w = [1,2,3,4,5]&lt;br&gt;x(t) = w x&#39;(t)^T" style="text;html=1;align=center;verticalAlign=middle;resizable=0;points=[];autosize=1;strokeColor=none;fillColor=none;" vertex="1" parent="WIyWlLk6GJQsqaUBKTNV-1">
          <mxGeometry x="25" y="1230" width="100" height="40" as="geometry" />
        </mxCell>
        <mxCell id="neUSthtTEVrd8TGyOHVI-37" value="" style="edgeStyle=orthogonalEdgeStyle;rounded=0;orthogonalLoop=1;jettySize=auto;html=1;" edge="1" parent="WIyWlLk6GJQsqaUBKTNV-1" source="neUSthtTEVrd8TGyOHVI-5" target="OFG8e6oeLdB0j_sNBnF0-30">
          <mxGeometry relative="1" as="geometry" />
        </mxCell>
        <mxCell id="neUSthtTEVrd8TGyOHVI-5" value="x2&#39;= 00001" style="ellipse;whiteSpace=wrap;html=1;" vertex="1" parent="WIyWlLk6GJQsqaUBKTNV-1">
          <mxGeometry x="380" y="1260" width="120" height="80" as="geometry" />
        </mxCell>
        <mxCell id="neUSthtTEVrd8TGyOHVI-36" value="" style="edgeStyle=orthogonalEdgeStyle;rounded=0;orthogonalLoop=1;jettySize=auto;html=1;" edge="1" parent="WIyWlLk6GJQsqaUBKTNV-1" source="neUSthtTEVrd8TGyOHVI-8" target="OFG8e6oeLdB0j_sNBnF0-55">
          <mxGeometry relative="1" as="geometry" />
        </mxCell>
        <mxCell id="neUSthtTEVrd8TGyOHVI-8" value="x3&#39;= 01000" style="ellipse;whiteSpace=wrap;html=1;" vertex="1" parent="WIyWlLk6GJQsqaUBKTNV-1">
          <mxGeometry x="550" y="1260" width="120" height="80" as="geometry" />
        </mxCell>
        <mxCell id="neUSthtTEVrd8TGyOHVI-38" value="" style="edgeStyle=orthogonalEdgeStyle;rounded=0;orthogonalLoop=1;jettySize=auto;html=1;" edge="1" parent="WIyWlLk6GJQsqaUBKTNV-1" source="neUSthtTEVrd8TGyOHVI-11" target="OFG8e6oeLdB0j_sNBnF0-63">
          <mxGeometry relative="1" as="geometry" />
        </mxCell>
        <mxCell id="neUSthtTEVrd8TGyOHVI-11" value="x4&#39;= 00001" style="ellipse;whiteSpace=wrap;html=1;" vertex="1" parent="WIyWlLk6GJQsqaUBKTNV-1">
          <mxGeometry x="720" y="1260" width="120" height="80" as="geometry" />
        </mxCell>
        <mxCell id="neUSthtTEVrd8TGyOHVI-39" value="" style="edgeStyle=orthogonalEdgeStyle;rounded=0;orthogonalLoop=1;jettySize=auto;html=1;" edge="1" parent="WIyWlLk6GJQsqaUBKTNV-1" source="neUSthtTEVrd8TGyOHVI-14" target="OFG8e6oeLdB0j_sNBnF0-71">
          <mxGeometry relative="1" as="geometry" />
        </mxCell>
        <mxCell id="neUSthtTEVrd8TGyOHVI-14" value="x5&#39;= 10000" style="ellipse;whiteSpace=wrap;html=1;" vertex="1" parent="WIyWlLk6GJQsqaUBKTNV-1">
          <mxGeometry x="890" y="1260" width="120" height="80" as="geometry" />
        </mxCell>
        <mxCell id="neUSthtTEVrd8TGyOHVI-40" value="" style="edgeStyle=orthogonalEdgeStyle;rounded=0;orthogonalLoop=1;jettySize=auto;html=1;" edge="1" parent="WIyWlLk6GJQsqaUBKTNV-1" source="neUSthtTEVrd8TGyOHVI-17" target="OFG8e6oeLdB0j_sNBnF0-79">
          <mxGeometry relative="1" as="geometry" />
        </mxCell>
        <mxCell id="neUSthtTEVrd8TGyOHVI-17" value="x6&#39;= 00010" style="ellipse;whiteSpace=wrap;html=1;" vertex="1" parent="WIyWlLk6GJQsqaUBKTNV-1">
          <mxGeometry x="1060" y="1260" width="120" height="80" as="geometry" />
        </mxCell>
        <mxCell id="neUSthtTEVrd8TGyOHVI-41" value="" style="edgeStyle=orthogonalEdgeStyle;rounded=0;orthogonalLoop=1;jettySize=auto;html=1;" edge="1" parent="WIyWlLk6GJQsqaUBKTNV-1" source="neUSthtTEVrd8TGyOHVI-20" target="OFG8e6oeLdB0j_sNBnF0-87">
          <mxGeometry relative="1" as="geometry" />
        </mxCell>
        <mxCell id="neUSthtTEVrd8TGyOHVI-20" value="x7&#39;= 10000" style="ellipse;whiteSpace=wrap;html=1;" vertex="1" parent="WIyWlLk6GJQsqaUBKTNV-1">
          <mxGeometry x="1230" y="1260" width="120" height="80" as="geometry" />
        </mxCell>
        <mxCell id="neUSthtTEVrd8TGyOHVI-42" value="" style="edgeStyle=orthogonalEdgeStyle;rounded=0;orthogonalLoop=1;jettySize=auto;html=1;" edge="1" parent="WIyWlLk6GJQsqaUBKTNV-1" source="neUSthtTEVrd8TGyOHVI-23" target="OFG8e6oeLdB0j_sNBnF0-95">
          <mxGeometry relative="1" as="geometry" />
        </mxCell>
        <mxCell id="neUSthtTEVrd8TGyOHVI-23" value="x8&#39;= 00100" style="ellipse;whiteSpace=wrap;html=1;" vertex="1" parent="WIyWlLk6GJQsqaUBKTNV-1">
          <mxGeometry x="1400" y="1260" width="120" height="80" as="geometry" />
        </mxCell>
        <mxCell id="neUSthtTEVrd8TGyOHVI-43" value="" style="edgeStyle=orthogonalEdgeStyle;rounded=0;orthogonalLoop=1;jettySize=auto;html=1;" edge="1" parent="WIyWlLk6GJQsqaUBKTNV-1" source="neUSthtTEVrd8TGyOHVI-26" target="OFG8e6oeLdB0j_sNBnF0-103">
          <mxGeometry relative="1" as="geometry" />
        </mxCell>
        <mxCell id="neUSthtTEVrd8TGyOHVI-26" value="x9&#39;= 10000" style="ellipse;whiteSpace=wrap;html=1;" vertex="1" parent="WIyWlLk6GJQsqaUBKTNV-1">
          <mxGeometry x="1570" y="1260" width="120" height="80" as="geometry" />
        </mxCell>
      </root>
    </mxGraphModel>
  </diagram>
</mxfile>
